<?xml version="1.0" encoding="UTF-8" standalone="no"?>
<!DOCTYPE svg PUBLIC "-//W3C//DTD SVG 1.1//EN" "http://www.w3.org/Graphics/SVG/1.1/DTD/svg11.dtd">
<svg xmlns="http://www.w3.org/2000/svg">
<metadata>
This is a custom SVG font generated by IcoMoon.
<iconset grid="5"/>
</metadata>
<defs>
<font id="ExpediaIcons" horiz-adv-x="512">
<font-face units-per-em="512" ascent="416" descent="-96"/>
<missing-glyph horiz-adv-x="512"/>
<glyph unicode="" d="M 255.996,384.332c-92.913,0.00-168.242-75.33-168.242-168.252c0.00-2.689, 0.084-5.377, 0.204-8.068   c 0.024-0.476, 0.053-0.954, 0.079-1.427c 7.257-136.973, 167.957-270.914, 167.957-270.914s 160.716,133.938, 167.975,270.913   c 0.024,0.475, 0.055,0.952, 0.075,1.428c 0.125,2.689, 0.203,5.377, 0.203,8.067C 424.253,309.002, 348.922,384.332, 255.996,384.332z    M 255.996,160.00c-30.962,0.00-56.077,25.10-56.077,56.08c0.00,30.972, 25.115,56.086, 56.077,56.086c 30.975,0.00, 56.078-25.115, 56.078-56.086   C 312.072,185.099, 286.971,160.00, 255.996,160.00z"/>
<glyph unicode="" d="M 368.00,384.00c-38.464,0.00-69.296-13.808-96.48-41.008c-0.016-0.016-0.032-0.032-0.048-0.048 l-0.016,0.00L 256.00,323.472L 240.544,341.76c-0.016,0.016-0.032,0.032-0.048,0.048L 240.48,341.808 l0.00,0.00C 213.28,369.024, 182.464,384.00, 144.00,384.00S 69.376,369.024, 42.176,341.824 C 14.992,314.624,0.00,278.464,0.00,240.00c0.00-38.432, 14.96-74.592, 42.128-101.776L 233.28-54.528C 239.28-60.592, 247.472-64.00, 256.00-64.00s 16.72,3.408, 22.72,9.472 l 191.136,192.752C 497.024,165.408, 512.00,201.552, 512.00,240.00c0.00,38.464-14.992,74.624-42.176,101.824C 442.624,369.024, 406.464,384.00, 368.00,384.00L 368.00,384.00z"/>
<glyph unicode="" d="M 368.00,322.00c 21.904,0.00, 42.496-8.529, 57.971-24.003C 441.466,282.492, 450.00,261.895, 450.00,240.00c0.00-21.884-8.522-42.464-23.997-57.948  l-0.086-0.086l-0.085-0.086L 256.00,10.611L 86.151,181.882l-0.084,0.085l-0.085,0.085C 70.517,197.526, 62.00,218.105, 62.00,240.00  s 8.534,42.492, 24.016,57.983C 101.504,313.471, 122.096,322.00, 144.00,322.00c 19.445,0.00, 34.831-6.75, 51.081-22.498l 13.566-16.051l 48.857-57.808  l 47.058,59.283l 12.991,16.367C 332.966,315.965, 347.781,322.00, 368.00,322.00 M 368.00,384.00c-38.464,0.00-69.296-13.808-96.48-41.008  c-0.016-0.016-0.031-0.032-0.047-0.048l-0.017,0.00 L 256.00,323.472L 240.544,341.76c-0.016,0.016-0.032,0.032-0.048,0.048l-0.016,0.00   C 213.28,369.024, 182.464,384.00, 144.00,384.00S 69.376,369.024, 42.176,341.824C 14.992,314.624,0.00,278.464,0.00,240.00  c0.00-38.432, 14.96-74.592, 42.128-101.775L 233.28-54.528c 6.00-6.063, 14.192-9.472, 22.72-9.472c 8.527,0.00, 16.721,3.408, 22.721,9.472  l 191.136,192.753C 497.024,165.408, 512.00,201.552, 512.00,240.00c0.00,38.464-14.992,74.624-42.176,101.824C 442.624,369.024, 406.464,384.00, 368.00,384.00  L 368.00,384.00z"/>
<glyph unicode="" d="M 512.00,217.476L 316.434,217.476 L 256.00,403.471l-60.434-185.995L0.00,217.476 l 158.217-114.953L 97.783-83.471L 256.00,31.48l 158.216-114.951  l-60.434,185.994L 512.00,217.476z M 368.564-20.638L 256.00,61.146l-112.566-81.784l 42.996,132.327L 73.864,193.476l 139.14,0.00 L 256.00,325.806  l 42.997-132.33l 139.139,0.00 l-112.567-81.787L 368.564-20.638z"/>
<glyph unicode="" d="M 512.00,223.996L 316.434,223.996 L 256.00,409.991l-60.433-185.995L0.00,223.996 l 158.217-114.952L 97.783-76.951L 256.00,38.00l 158.216-114.95l-60.433,185.994  L 512.00,223.996z"/>
<glyph unicode="" d="M 512.00,223.996L 316.434,223.996 L 256.00,409.991l-60.435-185.995L0.00,223.996 l 158.217-114.952L 97.783-76.951L 256.00,38.00l 158.216-114.95l-60.434,185.994  L 512.00,223.996z M 368.566-14.118L 256.00,67.666L 256.00,332.325 l 42.996-132.33l 139.14,0.00 L 325.57,118.211L 368.566-14.118z"/>
<glyph unicode="" d="M 256.00,38.00L 256.00,409.991L 195.567,223.996L0.00,223.996L 158.217,109.044L 97.783-76.951 z"/>
<glyph unicode="" d="M 216.243,102.588l-53.005,53.466l-19.869,20.039c-10.975,11.068-10.975,29.023,0.00,40.093  c 10.976,11.069, 28.782,11.069, 39.749,0.00l 72.886-72.686l 72.868,72.685c 10.975,11.07, 28.773,11.07, 39.759,0.00  c 10.976-11.069, 10.976-29.026,0.00-40.094l-72.893-73.496l-39.734-40.083L 216.243,102.588z"/>
<glyph unicode="" d="M 397.781,173.10L 178.613,308.883c-15.972,10.481-29.041,2.768-29.041-17.132l0.00-263.58 c0.00-19.888, 13.067-27.60, 29.041-17.128 L 397.781,146.82c0.00,0.00, 7.792,5.479, 7.792,13.144C 405.574,167.62, 397.781,173.10, 397.781,173.10z"/>
<glyph unicode="" d="M 182.474,165.614L 329.65,165.614 c 6.052,0.00, 10.96,6.293, 10.96,14.061l0.00,84.376 c0.00,7.768-4.908,14.061-10.96,14.061L 182.474,278.112     c-6.05,0.00-10.952-6.293-10.952-14.061l0.00-84.376 C 171.522,171.907, 176.424,165.614, 182.474,165.614z M 188.582,131.914    c-9.347,0.00-16.923-7.592-16.923-16.943c0.00-9.363, 7.576-16.944, 16.923-16.944c 9.339,0.00, 16.92,7.581, 16.92,16.944    C 205.502,124.322, 197.921,131.914, 188.582,131.914z M 212.66,300.743l 86.912,0.00 c 3.993,0.00, 7.239,5.045, 7.239,11.272    c0.00,6.233-3.246,11.277-7.239,11.277L 212.66,323.292 c-3.999,0.00-7.239-5.044-7.239-11.277C 205.421,305.788, 208.661,300.743, 212.66,300.743z     M 323.71,131.914c-9.341,0.00-16.92-7.592-16.92-16.943c0.00-9.363, 7.579-16.944, 16.92-16.944c 9.353,0.00, 16.922,7.581, 16.922,16.944    C 340.632,124.322, 333.062,131.914, 323.71,131.914z M 255.998,415.282C 115.009,415.282, 0.713,300.986, 0.713,159.997    c0.00-140.989, 114.296-255.279, 255.285-255.279c 140.988,0.00, 255.289,114.29, 255.289,255.279    C 511.287,300.986, 396.986,415.282, 255.998,415.282z M 329.828-25.507L 311.873-3.50l-111.651,0.196l-17.852-21.938l-33.386-0.637    l 63.00,56.387l 15.75,0.00 l-9.286-11.412l 74.787,0.243l-9.11,11.169l 15.745,0.00 l 62.844-55.937L 329.828-25.507z M 363.121,80.852    c0.00-15.412-11.992-27.912-26.77-27.912L 175.752,52.94 c-14.788,0.00-26.769,12.50-26.769,27.912L 148.983,318.072 c0.00,15.408, 11.981,27.901, 26.769,27.901    l 160.599,0.00 c 14.777,0.00, 26.77-12.493, 26.77-27.901L 363.121,80.852 z"/>
<glyph unicode="" d="M 366.58,416.00L 145.435,416.00 c-20.354,0.00-36.85-17.202-36.85-38.418l0.00-326.636 c0.00-21.216, 16.497-38.418, 36.85-38.418    L 366.58,12.528 c 20.346,0.00, 36.843,17.202, 36.843,38.418L 403.423,377.582 C 403.423,398.798, 386.926,416.00, 366.58,416.00z M 196.259,384.77l 119.663,0.00     c 5.515,0.00, 9.968-6.946, 9.968-15.527c0.00-8.575-4.453-15.52-9.968-15.52L 196.259,353.723 c-5.506,0.00-9.968,6.945-9.968,15.52    C 186.291,377.824, 190.753,384.77, 196.259,384.77z M 139.609,303.20c0.00,10.695, 6.758,19.361, 15.089,19.361l 202.656,0.00     c 8.331,0.00, 15.089-8.666, 15.089-19.361l0.00-116.177 c0.00-10.696-6.758-19.361-15.089-19.361L 154.698,167.662 c-8.331,0.00-15.089,8.666-15.089,19.361    L 139.609,303.20 z M 163.106,74.594c-12.869,0.00-23.299,10.445-23.299,23.337c0.00,12.884, 10.431,23.33, 23.299,23.33    c 12.861,0.00, 23.292-10.446, 23.292-23.33C 186.398,85.039, 175.967,74.594, 163.106,74.594z M 349.159,74.594    c-12.861,0.00-23.30,10.445-23.30,23.337c0.00,12.884, 10.438,23.33, 23.30,23.33c 12.876,0.00, 23.299-10.446, 23.299-23.33    C 372.458,85.039, 362.035,74.594, 349.159,74.594z M 294.652-18.36l 12.538-15.369l-102.961-0.345l 12.784,15.714l-21.686,0.00     L 108.577-96.00l 45.977,0.864l 24.583,30.218l 153.733-0.29l 24.712-30.292l 45.296,0.105l-86.532,77.034L 294.652-18.361 zM 272.50,228.50"/>
<glyph unicode="" d="M 256.01,415.555C 114.871,415.555, 0.436,301.139, 0.436,159.999c0.00-141.155, 114.436-255.554, 255.574-255.554   c 141.136,0.00, 255.555,114.396, 255.555,255.554C 511.562,301.139, 397.145,415.555, 256.01,415.555z M 256.00-15.307   c-96.817,0.00-175.30,78.479-175.30,175.307c0.00,96.812, 78.481,175.307, 175.30,175.307S 431.30,256.812, 431.30,160.00   C 431.30,63.176, 352.818-15.307, 256.00-15.307zM 256.00,291.378c-72.555,0.00-131.378-58.824-131.378-131.378c0.00-72.566, 58.823-131.378, 131.378-131.378   c 72.561,0.00, 131.383,58.812, 131.383,131.378C 387.383,232.554, 328.561,291.378, 256.00,291.378z M 321.74,138.084l-65.741,0.00    c-12.103,0.00-21.912,9.812-21.912,21.914l0.00,65.739 c0.00,12.103, 9.811,21.915, 21.912,21.915c 12.107,0.00, 21.91-9.812, 21.91-21.915l0.00-43.821    l 43.833,0.00 c 12.104,0.00, 21.914-9.814, 21.914-21.918C 343.656,147.896, 333.843,138.084, 321.74,138.084z"/>
<glyph unicode="" d="M 256.01,415.554C 114.871,415.554, 0.436,301.138, 0.436,159.999c0.00-141.155, 114.436-255.554, 255.574-255.554  c 141.136,0.00, 255.555,114.396, 255.555,255.554C 511.562,301.138, 397.145,415.554, 256.01,415.554z M 254.035,293.029  c 8.022,0.483, 15.089-4.371, 15.689-10.808l 2.167-23.419c 0.62-6.438-5.463-12.083-13.513-12.511  c-8.031-0.482-15.097,4.38-15.688,10.808l-2.159,23.375C 239.939,286.91, 246.003,292.556, 254.035,293.029z M 91.052,92.941  l-24.183-1.894c-6.647-0.51-12.521,4.315-13.059,10.745c-0.537,6.446, 4.463,12.092, 11.118,12.62l 24.176,1.876  c 6.647,0.51, 12.53-4.299, 13.066-10.746C 102.699,99.134, 97.701,93.45, 91.052,92.941z M 119.217,241.609  c 4.717,5.854, 13.12,6.575, 18.657,1.594l 20.151-18.229c 5.536-5.036, 6.209-13.95, 1.492-19.814c-4.707-5.918-13.103-6.628-18.647-1.594  l-20.151,18.22C 115.183,226.776, 114.508,235.70, 119.217,241.609z M 132.211,90.938c-5.519,64.021, 46.202,119.53, 114.849,124.685  c 68.649,5.144, 127.616-60.371, 133.151-124.394L 132.211,90.938z M 407.895,224.754l-18.193-20.105  c-5.008-5.563-13.896-6.237-19.76-1.548c-5.864,4.743-6.556,13.095-1.565,18.658l 18.21,20.15c 4.99,5.573, 13.877,6.247, 19.74,1.502  C 412.189,238.668, 412.90,230.273, 407.895,224.754z M 447.373,93.47l-23.418-2.258c-6.447-0.638-12.148,5.301-12.676,13.222  c-0.51,7.851, 4.334,14.843, 10.781,15.462l 23.492,2.331c 6.447,0.618, 12.129-5.30, 12.639-13.223  C 458.701,101.082, 453.822,94.107, 447.373,93.47z"/>
<glyph unicode="" d="M 134.49,170.733c 5.94,7.385, 5.092,18.611-1.88,24.954l-25.38,22.958c-6.972,6.273-17.556,5.367-23.497-2.007   c-5.929-7.442-5.08-18.681, 1.891-24.965l 25.379-22.947C 117.988,162.385, 128.561,163.279, 134.49,170.733z M 45.811,58.807   l-30.448-2.363c-8.383-0.665-14.679-7.775-14.002-15.894c 0.677-8.098, 8.073-14.175, 16.444-13.533l 30.458,2.385   c 8.372,0.641, 14.668,7.799, 14.003,15.871C 61.59,53.393, 54.182,59.449, 45.811,58.807z M 239.237,236.144   c 0.744-8.096, 9.644-14.219, 19.757-13.611c 10.138,0.539, 17.799,7.648, 17.019,15.756l-2.73,29.495   c-0.756,8.107-9.656,14.22-19.758,13.612c-10.115-0.596-17.752-7.707-17.007-15.814L 239.237,236.144z M 510.643,49.632   c-0.641,9.978-7.796,17.431-15.916,16.652l-29.588-2.936c-8.118-0.779-14.219-9.586-13.577-19.472   c 0.665-9.977, 7.844-17.455, 15.964-16.652l 29.493,2.844C 505.14,30.871, 511.286,39.654, 510.643,49.632z M 445.324,218.908   c-7.386,5.975-18.578,5.126-24.863-1.892l-22.935-25.378c-6.284-7.006-5.413-17.524, 1.972-23.498   c 7.386-5.906, 18.579-5.057, 24.886,1.95l 22.912,25.32C 453.604,202.36, 452.709,212.934, 445.324,218.908z M 244.741,183.909   C 158.287,177.418, 93.149,107.509, 100.099,26.88l 312.335,0.366C 405.462,107.877, 331.197,190.388, 244.741,183.909z"/>
<glyph unicode="" d="M 102.046,304.749l0.00-94.397 c0.00-106.609, 61.422-203.939, 153.955-245.779c 92.538,41.84, 153.96,139.17, 153.96,245.779l0.00,94.397    c-53.574,7.875-105.22,23.893-153.96,47.797C 207.25,328.641, 155.619,312.623, 102.046,304.749z M 256.001,414.843   C 193.683,379.757, 122.632,358.348, 46.896,354.772l0.00-144.421 c0.00-141.513, 87.451-261.732, 209.105-305.195   c 121.652,43.463, 209.104,163.682, 209.104,305.195L 465.105,354.772 C 389.376,358.348, 318.317,379.757, 256.001,414.843z M 437.52,210.351   c0.00-122.781-72.538-232.308-181.519-275.73C 147.013-21.957, 74.475,87.57, 74.475,210.351L 74.475,329.143    c 63.788,6.304, 124.678,24.522, 181.526,54.321c 56.847-29.798, 117.729-48.017, 181.519-54.321L 437.52,210.351 z"/>
<glyph unicode="" d="M 256.01,415.554C 114.871,415.554, 0.436,301.138, 0.436,159.999c0.00-141.155, 114.436-255.554, 255.574-255.554  c 141.136,0.00, 255.555,114.396, 255.555,255.554C 511.562,301.138, 397.145,415.554, 256.01,415.554z M 360.794,68.672  c-63.604-63.61-166.729-63.61-230.341,0.00c-10.853,10.854-19.806,22.875-26.954,35.635c 62.032-34.752, 141.953-25.799, 194.701,26.958  c 52.757,52.752, 61.716,132.669, 26.962,194.705c 12.76-7.149, 24.778-16.102, 35.632-26.958  C 424.404,235.407, 424.401,132.279, 360.794,68.672z"/>
<glyph unicode="" d="M 256.01,415.555C 114.871,415.555, 0.436,301.139, 0.436,159.999c0.00-141.155, 114.436-255.554, 255.574-255.554   c 141.136,0.00, 255.555,114.396, 255.555,255.554C 511.562,301.139, 397.145,415.555, 256.01,415.555z M 255.98,7.521   c-84.198,0.00-152.46,68.26-152.46,152.478c0.00,84.217, 68.262,152.479, 152.46,152.479c 84.216,0.00, 152.498-68.264, 152.499-152.479   C 408.479,75.783, 340.196,7.521, 255.98,7.521zM 291.893,169.284c-7.651,4.841-20.607,9.811-38.907,14.911c-5.955,1.639-9.791,3.37-11.447,5.176   c-2.234,2.29-3.352,4.839-3.352,7.634c0.00,4.186, 1.918,7.688, 5.734,10.479c 3.50,2.55, 7.762,3.816, 12.77,3.816   c 3.502,0.00, 7.746-0.818, 12.77-2.457c 7.709-2.55, 12.921-3.815, 15.622-3.815c 4.542,0.00, 8.283,1.34, 11.222,4.058   c 4.132,3.853, 6.201,8.582, 6.201,14.167c0.00,6.162-3.426,11.337-10.258,15.525c-5.884,3.537-13.924,6.162-24.105,7.893l0.00,11.58    c0.00,4.69-0.521,8.098-1.546,10.239c-1.993,4.095-5.458,6.162-10.39,6.162c-4.856,0.00-8.264-2.067-10.256-6.162   c-1.041-2.143-1.545-5.549-1.545-10.239l0.00-11.819 c-3.202-0.67-5.938-1.322-8.246-1.973c-8.19-2.477-15.469-6.908-21.836-13.311   c-10.183-10.276-15.265-22.506-15.265-36.73c0.00-6.904, 1.376-13.384, 4.169-19.469c 3.741-8.377, 9.625-14.781, 17.667-19.211   c 3.891-2.143, 11.652-4.861, 23.269-8.135c 10.741-3.053, 18.206-5.717, 22.43-8.025c 5.157-2.865, 7.744-7.109, 7.744-12.695   c0.00-4.02-1.305-7.559-3.927-10.592c-3.743-4.264-8.993-6.404-15.751-6.404c-5.883,0.00-12.174,1.193-18.857,3.576l-12.882,4.43   c-2.474,0.91-4.97,1.357-7.521,1.357c-4.69,0.00-8.674-1.879-11.931-5.658c-3.109-3.705-4.656-7.893-4.656-12.584   c0.00-9.438, 6.33-16.586, 18.97-21.443c 8.043-3.035, 16.903-4.973, 26.62-5.791l0.00-11.951 c0.00-4.672, 0.504-8.082, 1.544-10.221   c 2.066-4.115, 5.492-6.162, 10.258-6.162c 4.933,0.00, 8.395,2.049, 10.387,6.162c 1.026,2.143, 1.548,5.549, 1.548,10.221l0.00,13.311    c 2.938,0.746, 5.565,1.434, 7.872,2.104c 10.016,3.035, 18.299,8.451, 24.813,16.252c 8.116,9.699, 12.175,21.613, 12.178,35.736   C 313.002,146.982, 305.966,160.329, 291.893,169.284z"/>
<glyph unicode="" d="M 160.711,64.712l 190.577,0.00 L 351.288,207.64 L 160.711,207.64 L 160.711,64.712 z M 335.405,144.119l0.00-63.521 l-63.521,0.00 L 335.405,144.119zM 256.01,415.555C 114.871,415.555, 0.436,301.139, 0.436,159.999c0.00-141.155, 114.436-255.554, 255.574-255.554   c 141.136,0.00, 255.555,114.396, 255.555,255.554C 511.562,301.139, 397.145,415.555, 256.01,415.555z M 383.046,64.712   c0.00-17.541-14.216-31.758-31.758-31.758L 160.711,32.954 c-17.543,0.00-31.757,14.217-31.757,31.758L 128.954,255.281    c0.00,17.542, 14.214,31.765, 31.757,31.765l 190.577,0.00 c 17.542,0.00, 31.758-14.223, 31.758-31.766L 383.046,64.712 z"/>
<glyph unicode="" d="M 288.069,227.984L 347.414,227.984L 347.414,198.281L 288.069,198.281zM 256.009,415.719c-141.227,0.00-255.737-114.49-255.737-255.718c0.00-141.248, 114.511-255.72, 255.737-255.72   c 141.229,0.00, 255.72,114.472, 255.72,255.72C 511.729,301.229, 397.238,415.719, 256.009,415.719z M 80.29,250.227   c0.00,4.122, 3.297,7.44, 7.421,7.44l 51.944,0.00 l0.00,51.924 c0.00,4.123, 3.318,7.439, 7.419,7.439l 103.891,0.00 c 4.122,0.00, 7.421-3.317, 7.421-7.439l0.00-38.439    c-8.619-3.101-14.822-11.268-14.822-20.926l0.00-37.084 L 206.46,213.142 c-12.309,0.00-22.32-9.992-22.32-22.262l0.00-37.123 L 87.71,153.757    c-2.612,0.00-5.106-0.51-7.421-1.334L 80.289,250.227 z M 258.386,27.646c0.00-4.124-3.299-7.46-7.421-7.46L 87.71,20.186 c-4.124,0.00-7.421,3.336-7.421,7.46   L 80.289,131.515 c0.00,4.104, 3.297,7.441, 7.421,7.441l 163.254,0.00 c 4.122,0.00, 7.421-3.337, 7.421-7.441L 258.385,27.646 z M 436.441,27.646   c0.00-4.124-3.297-7.46-7.359-7.46L 271.854,20.186 c 0.823,2.336, 1.354,4.83, 1.354,7.46L 273.208,131.515 c0.00,12.271-9.954,22.242-22.225,22.242L 199.02,153.757    L 199.02,190.88 c0.00,4.104, 3.299,7.401, 7.44,7.401l 51.926,0.00 l0.00,51.945 c0.00,4.122, 3.336,7.44, 7.399,7.44l 103.93,0.00 c 4.104,0.00, 7.422-3.318, 7.422-7.44   l0.00-51.945 l 51.945,0.00 c 4.062,0.00, 7.359-3.298, 7.359-7.401L 436.441,27.646 zM 169.318,287.369L 228.683,287.369L 228.683,257.667L 169.318,257.667z"/>
<glyph unicode="" d="M 175.74,296.992L 216.977,296.992L 216.977,255.754L 175.74,255.754zM 255.726,416.00C 114.588,416.00, 0.152,301.584, 0.152,160.445c0.00-141.156, 114.436-255.553, 255.574-255.553   c 141.136,0.00, 255.555,114.396, 255.555,255.553C 511.279,301.584, 396.861,416.00, 255.726,416.00z M 423.229,8.223L 93.242,8.223 l0.00,41.595 L 134.50,49.818 L 134.50,317.632    c0.00,11.38, 9.222,20.619, 20.601,20.619l 144.394,0.00 c 11.379,0.00, 20.619-9.24, 20.619-20.619l0.00-41.238 l 41.239,0.00    c 11.359,0.00, 20.619-9.281, 20.619-20.638l0.00-205.938 l 41.257,0.00 L 423.229,8.223L 423.229,8.223zM 175.74,235.115L 216.977,235.115L 216.977,193.877L 175.74,193.877zM 175.74,173.237L 216.977,173.237L 216.977,131.999L 175.74,131.999zM 237.596,173.237L 278.854,173.237L 278.854,131.999L 237.596,131.999zM 175.74,111.361L 216.977,111.361L 216.977,70.12L 175.74,70.12zM 237.596,111.361L 278.854,111.361L 278.854,49.481L 237.596,49.481zM 299.494,173.237L 340.753,173.237L 340.753,131.999L 299.494,131.999zM 299.494,235.115L 340.753,235.115L 340.753,193.877L 299.494,193.877zM 299.494,111.361L 340.753,111.361L 340.753,70.12L 299.494,70.12zM 237.596,235.115L 278.854,235.115L 278.854,193.877L 237.596,193.877zM 237.596,296.992L 278.854,296.992L 278.854,255.754L 237.596,255.754z"/>
<glyph unicode="" d="M 296.458,219.606c-8.491,0.00-15.312-6.821-15.312-15.273c0.00-8.414, 6.821-15.255, 15.312-15.255   c 8.373,0.00, 15.254,6.841, 15.254,15.255C 311.712,212.785, 304.831,219.606, 296.458,219.606zM 217.771,189.55c 8.197,0.00, 14.821,6.605, 14.821,14.784c0.00,8.196-6.625,14.801-14.821,14.801   c-8.159,0.00-14.802-6.605-14.802-14.801C 202.969,196.155, 209.612,189.55, 217.771,189.55zM 255.945,416.00C 114.532,416.00-0.128,301.359-0.128,159.945c0.00-141.432, 114.66-256.054, 256.073-256.054   C 397.357-96.108, 512.00,18.514, 512.00,159.945C 511.999,301.359, 397.357,416.00, 255.945,416.00z M 161.808,327.799l 78.943,0.00 L 240.751,350.267 l 33.789,0.00 l0.00-22.468    l 77.862,0.00 l0.00-22.312 L 161.808,305.487 L 161.808,327.799 z M 119.897,294.126l 275.497,0.00 l0.00-21.741 l-21.351,0.00 l0.00-37.074 l-117.275,45.094l-117.333-45.094l0.00,37.074 l-19.539,0.00    L 119.896,294.126 L 119.897,294.126z M 71.914,162.581l0.00,27.696 l 179.509,69.055l0.00-194.21 c-21.858-1.887-34.397-14.607-41.359-21.566   c-1.062-1.061-3.104-2.573-4.226-4.343c0.00,0.00-0.099,0.00-0.137,0.00c-1.062,1.77-3.107,3.184-4.188,4.245   c-4.994,4.993-12.915,12.975-24.983,17.81C 165.423,115.657, 129.941,156.604, 71.914,162.581z M 410.782-2.697   c-17.927,0.00-27.459,9.495-34.398,16.472c-6.233,6.173-9.495,9.16-16.829,9.16c-7.351,0.00-10.67-2.989-16.824-9.16   c-6.959-6.977-16.455-16.472-34.44-16.472s-27.48,9.495-34.439,16.472c-6.153,6.173-9.454,9.16-16.787,9.16   c-7.389,0.00-10.654-2.989-16.846-9.16c-6.96-6.977-16.492-16.472-34.439-16.472c-17.987,0.00-27.46,9.495-34.398,16.472   c-6.211,6.173-9.535,9.143-16.847,9.143c-7.332,0.00-10.635-2.97-16.787-9.143c-6.998-6.977-16.492-16.472-34.439-16.472   c-6.88,0.00-12.443,5.564-12.443,12.424c0.00,6.878, 5.563,12.463, 12.443,12.463c 7.312,0.00, 10.596,2.968, 16.807,9.159   c 6.959,6.918, 16.452,16.453, 34.419,16.453c 17.966,0.00, 27.52-9.535, 34.44-16.453c 6.191-6.191, 9.495-9.159, 16.806-9.159   c 7.352,0.00, 10.635,2.968, 16.827,9.159c 6.938,6.918, 16.473,16.453, 34.458,16.453c 17.929,0.00, 27.463-9.535, 34.379-16.453   c 6.253-6.191, 9.516-9.159, 16.847-9.159c 7.352,0.00, 10.614,2.968, 16.847,9.159c 6.92,6.918, 16.492,16.453, 34.417,16.453   c 17.969,0.00, 27.482-9.535, 34.441-16.453c 6.151-6.191, 9.515-9.159, 16.786-9.159c 6.899,0.00, 12.504-5.585, 12.504-12.463   C 423.287,2.867, 417.682-2.697, 410.782-2.697z M 337.089,61.09c-11.833-4.817-19.54-12.619-24.53-17.533   c-1.043-1.062-3.108-2.575-4.229-4.345l-0.076,0.00 c-1.104,1.77-3.146,3.184-4.207,4.245c-7.079,7.037-19.795,19.992-41.93,21.74   L 262.117,259.332 l 179.489-69.055l0.00-27.696 C 384.995,156.604, 348.591,115.562, 337.089,61.09z"/>
<glyph unicode="" d="M 135.643,166.246c-15.843,0.00-28.702-12.857-28.702-28.721c0.00-15.862, 12.858-28.721, 28.702-28.721   c 15.843,0.00, 28.742,12.858, 28.742,28.721C 164.385,153.389, 151.485,166.246, 135.643,166.246zM 348.155,281.112L 164.385,281.112L 129.891,189.196L 382.648,189.196  zM 376.896,166.246c-15.882,0.00-28.74-12.857-28.74-28.721c0.00-15.862, 12.858-28.721, 28.74-28.721   c 15.861,0.00, 28.662,12.858, 28.662,28.721C 405.558,153.389, 392.757,166.246, 376.896,166.246zM 256.279,416.00C 115.05,416.00, 0.519,301.508, 0.519,160.258c0.00-141.229, 114.532-255.699, 255.761-255.699   C 397.509-95.441, 512.00,19.028, 512.00,160.258C 511.999,301.508, 397.509,416.00, 256.279,416.00z M 428.547,74.35l0.00-34.472    c0.00-6.321-5.145-11.466-11.486-11.466l-57.401,0.00 c-6.381,0.00-11.504,5.145-11.504,11.466L 348.156,74.35 L 164.385,74.35 l0.00-34.472    c0.00-6.321-5.163-11.466-11.506-11.466L 95.438,28.412 c-6.358,0.00-11.483,5.145-11.483,11.466L 83.955,74.35 c-6.341,0.00-11.465,5.145-11.465,11.486   l0.00,91.896 c0.00,6.32, 5.125,11.465, 11.465,11.465l 9.188,0.00 l 44.601,118.908c 1.591,4.496, 5.948,7.479, 10.622,7.479l 215.771,0.00    c 4.69,0.00, 9.106-2.983, 10.681-7.479l 44.543-118.908l 9.227,0.00 c 6.302,0.00, 11.465-5.145, 11.465-11.465l0.00-91.896    C 440.051,79.494, 434.888,74.35, 428.547,74.35z"/>
<glyph unicode="" d="M 256.112,416.00C 114.791,416.00, 0.225,301.435, 0.225,160.093c0.00-141.321, 114.566-255.867, 255.888-255.867S 512.00,18.771, 512.00,160.093  C 512.00,301.435, 397.434,416.00, 256.112,416.00z M 408.396,272.93l-77.438-77.438l 26.539-210.627l-19.33-19.33l-69.205,167.939L 200.50,65.035  l 8.389-79.972l-10.785-11.729l-41.49,84.57c-0.511,0.432-1.021,0.864-1.531,1.354c-0.608,0.67-1.277,1.357-1.886,2.102  l-84.708,41.607l 11.71,10.747l 81.366-8.467l 67.793,67.792L 61.476,242.226l 19.371,19.311l 210.567-26.481l 77.399,77.40  c 10.922,10.961, 28.661,10.922, 39.583,0.00C 419.337,301.532, 419.337,283.853, 408.396,272.93z"/>
<glyph unicode="" d="M 232.323,376.389c 1.768,23.35, 22.216,40.739, 45.402,38.967c 23.396-1.934, 40.785-22.216, 39.006-45.566  c-1.93-23.351-22.227-40.739-45.605-38.807C 247.771,332.748, 230.38,353.198, 232.323,376.389z M 399.656,176.39l-58.289,40.095  l-42.672,84.698c-7.248,10.957-19.203,19.971-33.699,21.098c-11.269,0.968-21.41-2.899-29.786-8.694l-85.02-68.919  c-2.734-2.411-4.667-5.635-5.795-9.173l-18.683-83.575c-0.16-0.964-0.319-1.766-0.319-2.571  c-0.815-10.624, 6.922-19.803, 17.549-20.612c 9.83-0.805, 18.197,6.762, 20.29,15.943l 15.782,71.652l 29.636,24.002l-45.404-201.105  l-54.427-91.308c-1.617-3.22-3.542-7.887-3.869-12.39c-1.28-15.793, 10.468-29.629, 26.41-30.758  c 11.109-0.972, 20.939,4.83, 26.733,13.844l 58.608,98.698c 1.126,2.581, 5.155,9.028, 5.633,12.078l 14.17,65.054l 61.064-66.82  l 19.162-100.321c 3.057-11.923, 12.721-21.58, 25.766-22.709c 15.777-1.127, 29.621,10.474, 30.75,26.41c 0.162,1.93-0.15,3.383,0.00,5.801  l-20.283,107.081c-0.645,3.22-1.773,6.439-3.547,9.17l-75.072,88.72l 19.203,84.376l 15.943-31.725  c 1.275-2.096, 2.893-4.028, 4.82-5.635l 63.607-43.793c 2.908-1.295, 5.475-2.581, 8.695-2.741c 10.461-0.969, 19.645,6.918, 20.447,17.39  C 407.705,166.408, 404.654,172.531, 399.656,176.39z"/>
<glyph unicode="" d="M 218.502,102.902C 145.882,175.511, 133.558,285.522, 181.394,370.91c -17.564-9.841, -34.113-22.164, -49.053-37.104 c -87.56-87.56, -87.56-229.512, 0.00-317.064c 87.556-87.556, 229.512-87.56, 317.064,0.00c 14.944,14.94 27.268,31.484 37.109,49.048 C 401.122,17.95, 291.115,30.282, 218.502,102.902z"/>
<glyph unicode="" d="M 336.739,64.508c-56.173,20.477-74.128,18.518-74.128,55.486c0.00,22.199, 17.152,14.945, 24.684,55.593   c 3.124,16.859, 18.271,0.277, 21.176,38.774c0.00,15.335-4.927,19.154-4.927,19.154s 0.856,22.697, 2.505,40.17   c 2.04,21.771-12.576,78.015-90.537,78.015c-77.962,0.00-92.587-56.244-90.538-78.015c 1.646-17.473, 2.504-40.17, 2.504-40.17   s-4.925-3.818-4.925-19.154c 2.893-38.497, 18.042-21.915, 21.166-38.773c 7.539-40.649, 24.681-33.395, 24.681-55.594   c0.00-36.973-17.944-35.018-74.117-55.486C 37.93,43.963, 1.321,23.029, 1.321,8.752c0.00-14.266,0.00-40.453,0.00-40.453L 215.51-31.701 l 214.188,0.00    c0.00,0.00,0.00,26.189,0.00,40.453C 429.699,23.029, 393.09,43.965, 336.739,64.508zM 457.771,87.35c-31.973,11.652-42.188,10.537-42.188,31.578c0.00,12.635, 9.764,8.51, 14.049,31.643   c 1.778,9.594, 10.401,0.156, 12.051,22.064c0.00,8.727-2.802,10.902-2.802,10.902s 0.489,12.918, 1.424,22.862   c 1.163,12.39-7.154,44.40-51.522,44.40c-44.37,0.00-52.693-32.009-51.526-44.40c 0.939-9.944, 1.428-22.862, 1.428-22.862   s-2.803-2.173-2.803-10.902c 1.646-21.908, 10.27-12.471, 12.044-22.064c 4.293-23.133, 14.052-19.008, 14.052-31.643   c0.00-21.041-8.227-18.93-40.192-30.586l 39.297-12.898c 32.813-11.967, 76.062-28.639, 87.922-42.844l 61.674,0.00 c0.00,0.00,0.00,14.902,0.00,23.021   C 510.675,63.746, 489.839,75.66, 457.771,87.35z"/>
<glyph unicode="" d="M 400.518,46.164c-66.963,24.404-88.369,22.071-88.369,66.145c0.00,26.468, 20.449,17.816, 29.428,66.276  c 3.723,20.096, 21.783,0.328, 25.242,46.215c0.00,18.281-5.869,22.835-5.869,22.835s 1.016,27.056, 2.984,47.887  c 2.43,25.951-14.994,93.00-107.93,93.00c-92.938,0.00-110.372-67.046-107.929-93.00c 1.96-20.832, 2.985-47.887, 2.985-47.887  s-5.871-4.553-5.871-22.835c 3.449-45.887, 21.509-26.121, 25.231-46.215c 8.987-48.46, 29.422-39.809, 29.422-66.276  c0.00-44.071-21.391-41.739-88.354-66.145C 44.312,21.675, 0.67-3.279, 0.67-20.299c0.00-17.009,0.00-48.223,0.00-48.223L 256.00-68.522 l 255.33,0.00   c0.00,0.00,0.00,31.214,0.00,48.223C 511.334-3.28, 467.691,21.675, 400.518,46.164z"/>
<glyph unicode="" d="M 256.001,413.996C 115.723,413.996, 2.013,300.269, 2.013,159.999c0.00-140.288, 113.712-253.995, 253.988-253.995   c 140.276,0.00, 253.985,113.711, 253.985,253.995C 509.986,300.269, 396.277,413.996, 256.001,413.996z M 256.001-30.35   c-105.123,0.00-190.35,85.211-190.35,190.349c0.00,105.122, 85.227,190.35, 190.35,190.35c 105.13,0.00, 190.356-85.228, 190.356-190.35   C 446.357,54.861, 361.131-30.35, 256.001-30.35z M 351.252,191.753l-63.508,0.00 l0.00,63.491 c0.00,17.535-14.203,31.753-31.745,31.753   c-17.534,0.00-31.748-14.218-31.748-31.753l0.00-95.247 c0.00-17.532, 14.213-31.751, 31.748-31.751l 95.25,0.00 c 17.535,0.00, 31.754,14.219, 31.754,31.751   C 383.004,177.534, 368.789,191.753, 351.252,191.753z"/>
<glyph unicode="" d="M 284.427,387.388c-125.567,0.00-227.397-101.805-227.397-227.375c0.00-9.627, 0.604-19.114, 1.766-28.429L 0.169,131.584 l 86.343-99.497   l 84.229,99.497l-54.484,0.00 c-1.553,9.247-2.373,18.741-2.373,28.43c0.00,94.173, 76.349,170.547, 170.543,170.547   c 94.197,0.00, 170.544-76.374, 170.544-170.547c0.00-94.195-76.347-170.572-170.544-170.572c-9.687,0.00-19.181,0.819-28.426,2.371l0.00-57.434    c 9.314-1.163, 18.801-1.767, 28.426-1.767c 125.598,0.00, 227.404,101.804, 227.404,227.401C 511.829,285.582, 410.024,387.388, 284.427,387.388   z M 284.427,273.702c-15.685,0.00-28.426-12.716-28.426-28.43l0.00-85.258 c0.00-15.716, 12.741-28.431, 28.426-28.431l 85.286,0.00    c 15.685,0.00, 28.428,12.715, 28.428,28.431c0.00,15.687-12.743,28.429-28.428,28.429l-56.856,0.00 l0.00,56.83    C 312.856,260.986, 300.143,273.702, 284.427,273.702z"/>
<glyph unicode="" d="M 310.299,107.234l-70.96-70.349l-26.596-26.37c-14.69-14.566-38.52-14.566-53.212,0.00c-14.691,14.567-14.691,38.199,0.00,52.755  L 256.00,160.004l-96.467,96.712c-14.692,14.565-14.692,38.188,0.00,52.769c 14.691,14.566, 38.523,14.566, 53.213,0.00l 97.544-96.745  l 53.199-52.735L 310.299,107.234z"/>
<glyph unicode="" d="M 256.016,415.207c-140.954,0.00-255.238-114.254-255.238-255.21c0.00-140.95, 114.284-255.204, 255.238-255.204   c 140.953,0.00, 255.207,114.254, 255.207,255.204C 511.224,300.953, 396.969,415.207, 256.016,415.207z M 278.579,5.402   c-7.367-6.621-15.975-9.915-25.795-9.915c-11.564,0.00-21.166,4.227-28.845,12.683c-6.621,7.366-9.916,16.132-9.916,26.292   c0.00,11.067, 4.323,20.514, 12.899,28.345c 7.243,6.622, 15.979,9.918, 26.295,9.918c 11.064,0.00, 20.449-4.292, 28.157-12.902   c 6.59-7.239, 9.885-15.758, 9.885-25.61C 291.261,22.683, 287.036,13.08, 278.579,5.402z M 334.652,156.21   c-12.497-10.753-28.159-18.214-47.06-22.346c 0.126-1.71, 0.217-3.017, 0.217-3.918c0.00-9.077-1.521-16.783-4.598-23.062   c-2.641-5.098-6.868-9.387-12.684-12.932c-5.562-3.077-11.406-4.60-17.527-4.60c-8.609,0.00-16.317,2.983-23.06,8.981   c-6.621,5.688-10.384,14.143-11.317,25.364c-0.155,1.398-0.216,5.375-0.216,11.996l0.00,22.381 c0.00,9.199, 1.926,15.977, 5.783,20.293   c 3.354,3.668, 7.27,6.062, 11.746,7.147c 2.61,0.748, 6.679,1.616, 12.213,2.52c 26.575,4.477, 39.878,16.628, 39.878,36.457   c0.00,10.756-4.225,18.896-12.68,24.43c-6.59,4.32-13.928,6.466-21.883,6.466c-13.085,0.00-24.927-7.245-35.525-21.696   c-5.533-7.369-9.76-12.154-12.68-14.297c-5.534-3.668-11.687-5.534-18.463-5.534c-9.542,0.00-17.529,3.388-23.963,10.163   c-6.001,6.00-9.014,13.584-9.014,22.814c0.00,18.618, 8.923,35.837, 26.76,51.658c 20.764,18.306, 45.815,27.444, 75.187,27.444   c 20.761,0.00, 40.124-4.694, 58.118-14.046c 18.899-9.853, 32.888-23.686, 41.96-41.524c 6.777-13.209, 10.133-28.065, 10.133-44.509   C 365.979,197.421, 355.539,174.206, 334.652,156.21z"/>
<glyph unicode="" d="M 476.74,25.576l-45.623,0.00 L 431.117,136.967 L 79.677,136.967 l0.00-111.391 L 35.239,25.576 c-18.718,0.00-33.944,15.545-33.944,34.732L 1.295,228.47   c0.00,19.224, 15.225,34.733, 33.944,34.733L 476.74,263.203 c 18.756,0.00, 33.965-15.509, 33.965-34.733l0.00-168.162   C 510.705,41.121, 495.499,25.576, 476.74,25.576z M 112.496,374.461l 286.781,0.00 l0.00-79.698 L 112.496,294.763 L 112.496,374.461 z M 403.748-54.461L 109.005-54.461   L 109.005,106.473 l 294.743,0.00 L 403.748-54.461 z"/>
<glyph unicode="" d="M 398.912,350.55l-191.03,0.00 c-26.201,0.00-47.157-20.964-47.157-47.165l0.00-191.024 c0.00-26.20, 21.436-47.64, 47.638-47.64l 190.55,0.00   c 26.199,0.00, 47.637,21.438, 47.637,47.64L 446.55,302.912 C 446.549,329.113, 425.111,350.55, 398.912,350.55z M 398.912,112.361L 208.36,112.361 L 208.36,302.912   l 190.552,0.00 L 398.912,112.361 z M 113.085,160.00L 65.449,160.00 l0.00-142.913 c0.00-26.201, 21.437-47.637, 47.638-47.637l 142.911,0.00 l0.00,47.637 L 113.086,17.087 L 113.085,160.00  L 113.085,160.00z"/>
<glyph unicode="" d="M 7.005,283.178c 30.823-85.067, 71.941-158.219, 141.581-230.847c 67.182-64.071, 145.685-110.414, 230.845-141.236  c 38.879-13.999, 82.394-0.062, 105.969,33.873l 18.442,26.625c 11.418,16.515, 7.621,39.158-8.583,51.039l-87.092,63.793  c-21.96,16.079-51.473,17.447-74.834,3.452l-55.457-33.249c-24.075,17.075-46.84,36.017-68.363,56.577  c-19.875,20.809-39.812,44.508-56.889,68.55l 33.062,55.646c 14.028,23.326, 12.69,52.78-3.45,74.739l-63.826,86.995  C 106.50,415.338, 83.888,419.132, 67.34,407.718L 40.778,389.179C 6.789,365.632-7.022,322.057, 7.005,283.178z"/>
<glyph unicode="" d="M 149.587,138.716l0.00,53.213 c0.00,17.613, 14.313,31.927, 31.929,31.927l 53.212,0.00 l0.00,53.212 c0.00,13.846, 8.918,25.547, 21.285,29.957   l0.00,55.16 c0.00,5.888-4.754,10.642-10.644,10.642L 96.40,372.827 c-5.889,0.00-10.644-4.754-10.644-10.642l0.00-74.474 L 11.26,287.711    c-5.888,0.00-10.643-4.754-10.643-10.644l0.00-140.299 c 3.351,1.183, 6.897,1.945, 10.643,1.945L 149.587,138.716L 149.587,138.716z    M 128.303,330.28l 85.14,0.00 l0.00-42.569 l-85.14,0.00 L 128.303,330.28 z M 500.768,202.57L 426.27,202.57 l0.00,74.497 c0.00,5.89-4.752,10.644-10.641,10.644L 266.656,287.711    c-5.889,0.00-10.644-4.754-10.644-10.644l0.00-74.497 l-74.497,0.00 c-5.889,0.00-10.643-4.755-10.643-10.643l0.00-53.214 l 74.497,0.00    c 17.591,0.00, 31.929-14.31, 31.929-31.90L 277.298-42.16 c0.00-3.769-0.787-7.313-1.973-10.666l 225.439,0.00 c 5.867,0.00, 10.617,4.779, 10.617,10.666L 511.381,191.929    C 511.385,197.817, 506.631,202.57, 500.768,202.57z M 383.699,202.57l-85.141,0.00 l0.00,42.57 l 85.141,0.00 L 383.699,202.57 z M 245.37,117.457L 11.26,117.457    c-5.888,0.00-10.643-4.78-10.643-10.644l0.00-148.973 c0.00-5.887, 4.755-10.666, 10.643-10.666l 234.11,0.00 c 5.89,0.00, 10.645,4.779, 10.645,10.666   L 256.015,106.813 C 256.014,112.677, 251.259,117.457, 245.37,117.457z"/>
<glyph unicode="" d="M 512.148,79.944L 512.148,272.062 L 341.392,165.337L 512.148,79.944z M 496.138,336.108L 15.861,336.108 c-8.85,0.00-16.011-7.178-16.011-16.011   l0.00-16.012 l 256.15-160.097l 256.147,159.942L 512.147,320.097 C 512.148,328.932, 504.987,336.108, 496.138,336.108z M-0.149,272.062l0.00-192.119    l 170.76,85.394L-0.149,272.062z M 320.045,151.996L 256.00,111.966l-64.045,40.03l0.00-8.006 L-0.149,47.938l0.00-48.036    c0.00-8.848, 7.161-16.01, 16.011-16.01l 480.277,0.00 c 8.848,0.00, 16.011,7.162, 16.011,16.01l0.00,48.036 L 320.045,143.99L 320.045,151.996 L 320.045,151.996z"/>
<glyph unicode="" d="M0.00,271.988l 95.981,0.00 L 95.981,368.00 L0.00,368.00 L0.00,271.988 z M 159.988,368.00l0.00-96.013 L 512.00,271.987 L 512.00,368.00 L 159.988,368.00 z M0.00,111.987l 95.981,0.00 L 95.981,208.01 L0.00,208.01 L0.00,111.987 z    M 159.988,111.987L 512.00,111.987 L 512.00,208.01 L 159.988,208.01 L 159.988,111.987 z M0.00-48.00l 95.981,0.00 l0.00,95.982 L0.00,47.982 L0.00-48.00 z M 159.988-48.00L 512.00-48.00 l0.00,95.982 L 159.988,47.982 L 159.988-48.00 z"/>
<glyph unicode="" d="M 471.127,344.524c-54.036,54.035-141.647,54.035-195.71,0.00c-43.353-43.354-51.914-108.318-25.701-160.216L 163.50,98.099   l-61.189,61.188l-40.782-40.81l 61.183-61.161l-20.401-20.398l-61.159,61.187L 0.344,57.321l 122.371-122.372l 188.174,188.178   c 51.916-26.229, 116.881-17.665, 160.236,25.712C 525.165,202.877, 525.165,290.488, 471.127,344.524z M 414.974,196.992   c-25.381-25.381-66.549-25.381-91.956,0.00c-25.382,25.41-25.382,66.576,0.00,91.956c 25.407,25.383, 66.575,25.383, 91.956,0.00   C 440.355,263.568, 440.355,222.402, 414.974,196.992z"/>
<glyph unicode="" d="M 256.00,415.182C 115.201,415.182, 1.06,300.938, 1.06,160.008c0.00-140.947, 114.141-255.189, 254.94-255.189    c 140.808,0.00, 254.94,114.242, 254.94,255.189C 510.94,300.939, 396.808,415.182, 256.00,415.182z M 287.592,29.799    c0.00-12.342-1.432-21.367-4.297-27.094c-2.303-4.591-6.24-8.543-11.827-11.844c-5.025-2.865-10.392-4.296-16.137-4.296    c-8.031,0.00-15.198,2.802-21.506,8.386c-6.163,5.31-9.672,13.121-10.537,23.439l-0.218,11.407L 223.07,172.613     c0.00,12.186, 1.433,21.147, 4.304,26.89c 2.436,4.731, 6.379,8.747, 11.833,12.046c 5.01,2.863, 10.396,4.295, 16.124,4.295    c 8.028,0.00, 15.265-2.804, 21.724-8.39c 6.021-5.305, 9.478-13.118, 10.314-23.449l 0.219-11.392L 287.592,29.799L 287.592,29.799z     M 281.148,268.087c-7.175-6.457-15.562-9.679-25.165-9.679c-11.188,0.00-20.511,4.155-27.964,12.482    c-6.451,7.157-9.68,15.625-9.68,25.365c0.00,10.909, 4.153,20.152, 12.481,27.749c 7.02,6.457, 15.623,9.68, 25.809,9.68    c 10.605,0.00, 19.71-4.156, 27.319-12.466c 6.441-7.174, 9.68-15.562, 9.68-25.166C 293.629,284.862, 289.457,275.539, 281.148,268.087z"/>
<glyph unicode="" d="M 447.84-31.295L 447.84,287.884 c0.00,17.641-14.329,31.972-31.971,31.972l-63.94,0.00 L 351.929,383.798 c0.00,17.642-14.329,31.94-31.971,31.94L 96.193,415.738    c-17.672,0.00-31.972-14.299-31.972-31.94l0.00-415.093 L 0.28-31.295 l0.00-64.443 L 511.72-95.738 l0.00,64.443 L 447.84-31.295 z M 192.074,0.176l-63.912,0.00 l0.00,63.942 l 63.91,0.00    L 192.074,0.176L 192.074,0.176z M 192.074,96.089l-63.912,0.00 L 128.162,160.00 l 63.91,0.00 L 192.074,96.089L 192.074,96.089z M 192.074,191.971l-63.912,0.00    l0.00,63.942 l 63.91,0.00 L 192.074,191.971L 192.074,191.971z M 192.074,287.884l-63.912,0.00 L 128.162,351.826 l 63.91,0.00 L 192.074,287.884L 192.074,287.884z    M 287.986-31.796l-63.941,0.00 l0.00,95.912 l 63.941,0.00 L 287.986-31.796 z M 287.986,96.089l-63.941,0.00 L 224.045,160.00 l 63.941,0.00 L 287.986,96.089 z M 287.986,191.971l-63.941,0.00    l0.00,63.942 l 63.941,0.00 L 287.986,191.971 z M 287.986,287.884l-63.941,0.00 L 224.045,351.826 l 63.941,0.00 L 287.986,287.884 z M 383.897,0.176l-63.939,0.00 l0.00,63.942 l 63.939,0.00 L 383.897,0.176 z    M 383.897,96.089l-63.939,0.00 L 319.958,160.00 l 63.939,0.00 L 383.897,96.089 z M 383.897,191.971l-63.939,0.00 l0.00,63.942 l 63.939,0.00 L 383.897,191.971 z"/>
<glyph unicode="" d="M 256.00,293.333C 128.00,293.333, 0.001,181.334,0.00,149.333l0.00,0.00c 0.001-32.001, 128.00-144.00, 256.00-144.00s 255.997,111.999, 256.00,144.00l0.00,0.00 C 511.997,181.334, 384.00,293.333, 256.00,293.333z M 256.00,53.333c-53.021,0.00-96.00,42.98-96.00,96.00c0.00,53.02, 42.979,96.00, 96.00,96.00c 53.02,0.00, 96.00-42.98, 96.00-96.00 C 352.00,96.313, 309.02,53.333, 256.00,53.333zM 224.00,149.333A32.00,32.00 4500.00 1 1 288.00,149.33300000000003A32.00,32.00 4500.00 1 1 224.00,149.33300000000003z"/>
<glyph unicode="" d="M 255.969,415.729C 114.756,415.729, 0.271,301.243, 0.271,160.00c0.00-141.247, 114.485-255.729, 255.698-255.729   c 141.242,0.00, 255.761,114.486, 255.761,255.729C 511.729,301.241, 397.21,415.729, 255.969,415.729z M 331.178,48.447   c-10.927-13.081-24.819-22.166-41.618-27.258c-3.867-1.123-8.273-2.276-13.201-3.527l0.00-22.323 c0.00-7.836-0.875-13.549-2.596-17.141   c-3.34-6.898-9.146-10.335-17.42-10.335c-7.991,0.00-13.737,3.434-17.202,10.335c-1.747,3.588-2.59,9.305-2.59,17.141l0.00,20.043    c-16.297,1.372-31.157,4.622-44.646,9.713c-21.199,8.145-31.814,20.135-31.814,35.963c0.00,7.868, 2.593,14.893, 7.807,21.104   c 5.464,6.341, 12.144,9.49, 20.011,9.49c 4.277,0.00, 8.463-0.749, 12.613-2.276l 21.604-7.428c 11.209-3.996, 21.76-5.998, 31.627-5.998   c 11.333,0.00, 20.137,3.589, 26.415,10.742c 4.399,5.085, 6.586,11.022, 6.586,17.763c0.00,9.367-4.338,16.484-12.986,21.291   c-7.085,3.873-19.604,8.34-37.62,13.459c-19.481,5.492-32.499,10.052-39.025,13.644c-13.487,7.43-23.354,18.171-29.629,32.22   c-4.684,10.207-6.992,21.074-6.992,32.654c0.00,23.854, 8.523,44.366, 25.602,61.60c 10.677,10.739, 22.884,18.17, 36.621,22.324   c 3.871,1.092, 8.461,2.185, 13.83,3.309L 236.555,324.779 c0.00,7.866, 0.845,13.579, 2.591,17.172c 3.341,6.868, 9.055,10.334, 17.201,10.334   c 8.271,0.00, 14.082-3.466, 17.424-10.334c 1.717-3.591, 2.592-9.306, 2.592-17.172l0.00-19.42 c 17.076-2.904, 30.562-7.306, 40.43-13.238   c 11.459-7.025, 17.203-15.704, 17.203-26.038c0.00-9.366-3.47-17.298-10.40-23.76c-4.928-4.558-11.203-6.806-18.821-6.806   c-4.529,0.00-13.271,2.123-26.20,6.40c-8.424,2.748-15.543,4.12-21.416,4.12c-8.399,0.00-15.548-2.122-21.417-6.40   c-6.40-4.682-9.616-10.554-9.616-17.575c0.00-4.686, 1.873-8.961, 5.62-12.803c 2.778-3.028, 9.212-5.931, 19.20-8.679   c 30.691-8.554, 52.42-16.89, 65.251-25.01c 23.604-15.018, 35.405-37.402, 35.405-67.187   C 351.596,84.695, 344.79,64.714, 331.178,48.447z"/>
<glyph unicode="" d="M 469.152-49.753c-10.135,0.00-14.719,4.113-23.275,12.683c-9.619,9.602-22.772,22.759-47.639,22.759    c-24.853,0.00-38.021-13.155-47.645-22.759c-8.556-8.575-13.139-12.683-23.272-12.683c-10.15,0.00-14.716,4.113-23.289,12.683    c-9.604,9.602-22.773,22.759-47.624,22.759c-24.873,0.00-38.035-13.155-47.64-22.759c-8.571-8.575-13.138-12.683-23.281-12.683    c-10.149,0.00-14.722,4.113-23.288,12.683c-9.613,9.602-22.772,22.759-47.631,22.759c-24.867,0.00-38.031-13.155-47.634-22.759    c-8.573-8.575-13.14-12.683-23.289-12.683c-9.503,0.00-17.212-7.708-17.212-17.236c0.00-9.498, 7.707-17.204, 17.212-17.204    c 24.86,0.00, 38.02,13.168, 47.632,22.773c 8.571,8.572, 13.141,12.682, 23.289,12.682c 10.149,0.00, 14.716-4.112, 23.28-12.682    c 9.61-9.605, 22.772-22.773, 47.64-22.773c 24.86,0.00, 38.021,13.168, 47.626,22.773c 8.571,8.572, 13.138,12.698, 23.295,12.698    c 10.136,0.00, 14.718-4.126, 23.275-12.698c 9.617-9.605, 22.771-22.773, 47.639-22.773c 24.852,0.00, 38.021,13.168, 47.64,22.773    c 8.556,8.572, 13.14,12.698, 23.274,12.698c 10.151,0.00, 14.718-4.126, 23.29-12.698c 9.601-9.605, 22.773-22.773, 47.624-22.773    c 9.531,0.00, 17.237,7.706, 17.237,17.204C 486.387-57.461, 478.681-49.753, 469.152-49.753z M 388.345,373.16L 280.596,373.16 L 280.596,404.193 l-46.736,0.00     L 233.86,373.16 L 124.643,373.16 l0.00-30.905 l 263.701,0.00 L 388.345,373.16L 388.345,373.16z M 93.67,245.138l 162.315,62.432l 162.339-62.432l0.00,51.289 l 29.51,0.00 L 447.834,326.56     L 66.618,326.56 l0.00-30.132 L 93.67,296.428 L 93.67,245.138 z M 144.997,4.318c 16.734-6.688, 27.665-17.724, 34.598-24.653c 1.458-1.457, 4.286-3.415, 5.796-5.871    l 0.191,0.00 c 1.508,2.456, 4.338,4.55, 5.794,6.006c 9.671,9.665, 27.06,27.219, 57.244,29.86L 248.62,278.388 L 0.213,182.837l0.00-38.339     C 80.471,136.231, 129.613,79.572, 144.997,4.318z M 202.053,222.775c 11.309,0.00, 20.481-9.168, 20.481-20.487    c0.00-11.302-9.173-20.473-20.481-20.473c-11.312,0.00-20.482,9.168-20.482,20.473C 181.57,213.605, 190.739,222.775, 202.053,222.775z     M 263.376,278.388l0.00-268.636 c 30.692-2.427, 48.29-20.331, 58.062-30.087c 1.46-1.457, 4.278-3.415, 5.797-5.871l 0.183,0.00     c 1.516,2.456, 4.339,4.55, 5.796,6.006c 6.858,6.83, 17.585,17.616, 33.939,24.275C 383.02,79.45, 433.438,136.222, 511.787,144.50l0.00,38.34     L 263.376,278.388z M 310.876,181.155c-11.68,0.00-21.146,9.468-21.146,21.142c0.00,11.673, 9.467,21.146, 21.146,21.146    c 11.684,0.00, 21.151-9.471, 21.151-21.146S 322.563,181.155, 310.876,181.155zM 272.50,228.50"/>
<glyph unicode="" d="M 486.489,200.865l-28.933,7.218c-5.203,21.881-13.894,42.403-25.425,60.982l 23.101,36.299   c 10.013,10.014, 10.013,26.25,0.00,36.263l-18.135,18.148c-10.014,10.015-26.264,10.015-36.28,0.00l-36.452-23.201   c-18.394,11.311-38.685,19.839-60.293,24.973l-7.222,28.941c0.00,13.405-12.19,24.26-27.231,24.26l-27.242,0.00    c-15.053,0.00-27.245-10.854-27.245-24.26l-7.224-28.947c-21.709-5.159-42.081-13.748-60.542-25.14L 110.63,359.776   c-10.014,10.015-26.248,10.015-36.26,0.00L 56.238,341.628c-10.03-10.014-10.03-26.249,0.00-36.263l 23.371-36.727   c-11.395-18.465-19.987-38.841-25.149-60.551l-28.947-7.222c-13.407,0.00-24.26-12.193-24.26-27.244l0.00-27.247    c0.00-15.032, 10.853-27.228, 24.26-27.228l 28.958-7.225c 5.141-21.596, 13.672-41.877, 24.984-60.264L 56.24,15.181   c-10.031-10.016-10.031-26.269,0.00-36.279l 18.132-18.135c 10.014-10.012, 26.249-10.012, 36.262,0.00l 36.353,23.134   c 18.557-11.505, 39.055-20.185, 60.912-25.381l 7.234-28.992c0.00-13.406, 12.192-24.277, 27.246-24.277l 27.24,0.00    c 15.042,0.00, 27.231,10.871, 27.231,24.277l 7.234,28.986c 21.757,5.17, 42.174,13.781, 60.662,25.205l 36.073-22.953   c 10.016-10.012, 26.267-10.012, 36.28,0.00l 18.133,18.133c 10.014,10.013, 10.014,26.266,0.00,36.281l-22.945,36.051   c 11.446,18.503, 20.076,38.926, 25.255,60.693l 28.946,7.223c 13.386,0.00, 24.259,12.195, 24.259,27.229l0.00,27.247    C 510.748,188.672, 499.878,200.865, 486.489,200.865z M 255.906,96.303c-35.206,0.00-63.758,28.521-63.758,63.696   c0.00,35.194, 28.554,63.714, 63.758,63.714c 35.234,0.00, 63.789-28.52, 63.789-63.714C 319.695,124.823, 291.144,96.303, 255.906,96.303z"/>
<glyph unicode="" d="M 430.453,358.242L 192.562,120.352L 81.546,231.367L 2.25,152.07L 192.562-38.242L 509.75,278.944 z"/>
<glyph unicode="" d="M 462.746,65.407c0.00,35.524-28.811,64.319-64.322,64.319L 194.312,129.726 l-13.06,48.321l 204.764,0.00 l0.00,46.588 L 168.673,224.635 L 125.165,385.751  C 119.595,406.33, 98.413,418.522, 77.819,412.952C 57.24,407.413, 45.032,386.20, 50.602,365.622L 123.06,97.25l 18.257-67.615  c 4.055-14.978, 16.432-25.421, 30.791-27.897c 1.347-0.139, 2.645-0.355, 4.022-0.402c 0.852-0.031, 1.64-0.263, 2.506-0.263l 158.967,0.00 l 16.941,0.00   l-13.012-48.771L 185.615-47.698 l 12.579-46.603l 130.913,0.00 l 48.229,0.00 l 12.439,46.603l 13.012,48.771l-4.363,0.00   C 433.936,1.072, 462.746,29.883, 462.746,65.407z"/>
<glyph unicode="" d="M 367.348,414.507L 144.653,414.507 c-35.142,0.00-63.634-28.493-63.634-63.635l0.00-381.776 c0.00-35.112, 28.492-63.603, 63.634-63.603l 222.692,0.00    c 35.141,0.00, 63.635,28.49, 63.635,63.603L 430.98,350.871 C 430.98,386.014, 402.486,414.507, 367.348,414.507z M 255.921-75.773   c-16.282,0.00-29.486,13.052-29.486,29.145c0.00,16.127, 13.206,29.178, 29.486,29.178c 16.281,0.00, 29.488-13.051, 29.488-29.178   C 285.412-62.723, 272.207-75.773, 255.921-75.773z M 399.164,32.73c0.00-17.558-14.233-31.814-31.816-31.814L 144.653,0.916    c-17.554,0.00-31.814,14.26-31.814,31.814L 112.839,319.054 c0.00,17.555, 14.262,31.817, 31.814,31.817l 222.692,0.00 c 17.585,0.00, 31.816-14.262, 31.816-31.817   L 399.164,32.73L 399.164,32.73z"/>
<glyph unicode="" d="M 494.669,183.839l-12.727,0.00 L 420.213,348.546c-2.233,6.20-8.284,10.343-14.812,10.343L 106.568,358.889    c-6.499,0.00-12.548-4.143-14.783-10.343L 30.058,183.839L 17.33,183.839 c-8.763,0.00-15.917-7.153-15.917-15.885L 1.413,40.66    c0.00-8.764, 7.154-15.916, 15.917-15.916l0.00-47.75 c0.00-8.762, 7.093-15.883, 15.885-15.883l 79.582,0.00 c 8.793,0.00, 15.916,7.121, 15.916,15.883l0.00,47.75    l 254.571,0.00 l0.00-47.75 c0.00-8.762, 7.126-15.883, 15.917-15.883l 79.55,0.00 c 8.794,0.00, 15.918,7.121, 15.918,15.883l0.00,47.75    c 8.761,0.00, 15.918,7.152, 15.918,15.916L 510.587,167.953 C 510.586,176.684, 503.433,183.839, 494.669,183.839z M 462.836,112.252   c0.00-21.965-17.796-39.789-39.761-39.789c-21.997,0.00-39.791,17.824-39.791,39.789c0.00,21.969, 17.794,39.785, 39.791,39.785   C 445.042,152.037, 462.836,134.219, 462.836,112.252z M 88.924,72.463c-21.968,0.00-39.791,17.824-39.791,39.789   c0.00,21.969, 17.823,39.785, 39.791,39.785c 21.967,0.00, 39.791-17.816, 39.791-39.785C 128.715,90.287, 110.891,72.463, 88.924,72.463z    M 80.966,183.839l 47.747,127.301l 254.571,0.00 l 47.748-127.301L 80.966,183.839 z"/>
<glyph unicode="" d="M 446.873,414.486L 65.125,414.486 c-35.139,0.00-63.611-28.49-63.611-63.629l0.00-381.729 c0.00-35.138, 28.472-63.614, 63.611-63.614l 381.747,0.00    c 35.138,0.00, 63.614,28.477, 63.614,63.614L 510.486,350.856 C 510.486,385.996, 482.01,414.486, 446.873,414.486z M 446.873-30.873L 65.125-30.873 L 65.125,255.428    l 381.747,0.00 L 446.873-30.873L 446.873-30.873z M 415.057,128.188l-127.24-127.241l 127.24,0.00 L 415.057,128.188 z"/>
<glyph unicode="" d="M 2.03,234.678l0.00-239.002 c0.00-33.006, 26.761-59.765, 59.766-59.765l 59.765,0.00 l0.00,358.53 L 61.796,294.441    C 28.79,294.441, 2.03,267.683, 2.03,234.678z M 450.207,294.441l-59.766,0.00 l0.00-358.529 l 59.766,0.00 c 33.001,0.00, 59.763,26.758, 59.763,59.764L 509.97,234.678    C 509.972,267.683, 483.21,294.441, 450.207,294.441z M 330.707,384.089L 181.295,384.089 c-16.486,0.00-29.853-13.396-29.853-29.883l0.00-418.293 L 360.59-64.087    L 360.59,354.206 C 360.59,370.692, 347.194,384.089, 330.707,384.089z M 330.707,294.441L 181.295,294.441 L 181.295,354.206 l 149.412,0.00 L 330.707,294.441 z"/>
<glyph unicode="" d="M 442.908,91.59l-91.975-91.181l-34.496-34.214c-19.047-18.872-49.93-18.872-68.993,0.00c-19.042,18.903-19.042,49.525,0.00,68.40  l 78.321,77.645L 49.205,112.24 c-27.108,0.00-49.087,21.436-49.087,47.878c0.00,26.434, 21.98,47.872, 49.087,47.872l 276.326,0.00 l-78.086,77.406  c-19.042,18.888-19.042,49.51,0.00,68.397c 19.061,18.888, 49.948,18.888, 68.993,0.00l 126.471-125.397l 68.975-68.403L 442.908,91.59z"/>
<glyph unicode="" d="M 509.361,7.016c-0.073,1.391-0.183,2.772-0.418,4.181c-0.216,1.333-0.557,2.637-0.912,3.934   c-0.187,0.669-0.342,1.333-0.557,1.982c-1.766,5.548-4.524,10.831-8.21,15.337L 287.162,394.156   c-1.347,2.818-3.129,5.405-5.175,7.822c-1.115,1.392-2.338,2.634-3.594,3.81l0.00,0.015 c-6.505,6.181-14.574,9.308-23.14,8.906   c-7.938,0.031-15.389-2.99-21.498-8.674c-0.489-0.417-0.89-0.899-1.341-1.333c-0.782-0.805-1.578-1.565-2.306-2.447   c-2.209-2.541-4.075-5.283-5.476-8.271L 11.538,30.589c-2.743-3.70-4.972-7.773-6.489-12.11c-4.523-11.153-2.996-23.469, 3.50-33.10   c 0.103-0.155, 0.193-0.329, 0.302-0.496c 1.037-1.486, 2.23-2.851, 3.509-4.184c 0.418-0.448, 0.797-0.896, 1.231-1.314   c 1.03-0.978, 2.162-1.846, 3.321-2.713c 0.852-0.631, 1.689-1.271, 2.602-1.839c 0.372-0.23, 0.675-0.528, 1.062-0.745   c 0.651-0.371, 1.341-0.572, 2.006-0.896c 1.146-0.575, 2.292-1.101, 3.507-1.55c 1.084-0.401, 2.162-0.713, 3.253-1.007   c 1.177-0.31, 2.355-0.589, 3.577-0.789c 1.255-0.202, 2.501-0.312, 3.754-0.372c 0.714-0.048, 1.379-0.218, 2.098-0.218l 434.562,0.00    c 0.932,0.00, 1.812,0.198, 2.726,0.277c 0.792,0.062, 1.583,0.109, 2.388,0.233c 1.857,0.264, 3.672,0.681, 5.452,1.206   c 0.34,0.127, 0.697,0.219, 1.053,0.342c 2.169,0.714, 4.229,1.64, 6.195,2.744c 0.048,0.014, 0.093,0.028, 0.156,0.061   c 0.028,0.019, 0.028,0.046, 0.074,0.064c 2.09,1.191, 4.057,2.57, 5.874,4.152c 0.028,0.029, 0.042,0.046, 0.075,0.062   c 1.748,1.532, 3.313,3.221, 4.723,5.062c 0.062,0.048, 0.107,0.109, 0.153,0.155c 1.318,1.735, 2.448,3.562, 3.426,5.515   c 0.093,0.171, 0.199,0.338, 0.293,0.512c 0.806,1.688, 1.438,3.439, 1.982,5.252c 0.154,0.513, 0.341,1.021, 0.48,1.548   c 0.354,1.379, 0.541,2.787, 0.727,4.228c 0.14,1.069, 0.279,2.123, 0.327,3.205c 0.019,0.372, 0.108,0.729, 0.108,1.117   C 509.548,5.668, 509.393,6.332, 509.361,7.016z M 256.324,22.937c-19.742,0.00-35.749,16.001-35.749,35.733   c0.00,19.75, 16.007,35.749, 35.749,35.749c 19.732,0.00, 35.733-15.999, 35.733-35.749C 292.055,38.938, 276.056,22.937, 256.324,22.937z    M 256.337,127.903c-39.689,0.00-40.766,132.183-40.766,132.183c0.00,27.939, 22.893,27.322, 40.766,27.322   c 17.876,0.00, 40.751,0.619, 40.751-26.486C 297.088,260.919, 296.378,127.903, 256.337,127.903z"/>
<glyph unicode="" d="M 499.811,403.851c-15.737,15.705-41.232,15.739-56.974,0.00L 331.365,292.365L 28.242,330.512L 0.386,302.688l 241.719-99.595   l-97.594-97.601L 27.297,117.738l-16.84-15.548l 122.006-59.855c 0.861-1.057, 1.781-2.08, 2.765-3.064   c 0.679-0.683, 1.384-1.316, 2.099-1.939L 197.046-84.40l 15.548,16.868l-12.033,115.161l 98.523,98.522l 99.626-241.792l 27.823,27.856   l-38.161,303.223l 111.44,111.443C 515.548,362.619, 515.548,388.113, 499.811,403.851zM 272.50,228.50"/>
<glyph unicode="" d="M 255.996,227.085c-18.518,0.00-33.539-15.021-33.539-33.545c0.00-18.527, 15.021-33.54, 33.539-33.54   c 18.527,0.00, 33.539,15.011, 33.54,33.54C 289.536,212.063, 274.523,227.085, 255.996,227.085zM 256.01,415.554C 114.871,415.554, 0.436,301.138, 0.436,159.999c0.00-141.154, 114.436-255.553, 255.574-255.553   c 141.136,0.00, 255.555,114.396, 255.555,255.553C 511.562,301.138, 397.143,415.554, 256.01,415.554z M 356.505,188.715   c-0.014-0.283-0.031-0.57-0.047-0.854c-4.341-81.921-100.463-162.029-100.463-162.029s-96.114,80.109-100.454,162.03   c-0.016,0.283-0.032,0.57-0.047,0.854c-0.072,1.61-0.122,3.217-0.122,4.825c0.00,55.577, 45.054,100.63, 100.623,100.63   c 55.578,0.00, 100.633-45.053, 100.63-100.63C 356.626,191.932, 356.578,190.324, 356.505,188.715z"/>
<glyph unicode="" d="M 327.137,148.123l-71.134-69.289l-71.132,69.289c-13.106,12.782-34.354,12.782-47.458,0.00   c-13.085-12.735-13.085-33.425,0.00-46.176l 94.881-92.40c 13.086-12.729, 34.317-12.729, 47.42,0.00l 94.867,92.40   c 13.10,12.747, 13.10,33.439,0.00,46.176C 361.474,160.905, 340.241,160.905, 327.137,148.123z M 232.29,140.213   c 13.087-12.767, 34.319-12.767, 47.424,0.00l 94.863,92.401c 13.101,12.732, 13.101,33.441,0.00,46.174c-13.108,12.75-34.338,12.75-47.44,0.00   l-71.136-69.29l-71.134,69.288c-13.104,12.75-34.352,12.75-47.458,0.00c-13.085-12.733-13.085-33.443,0.00-46.174L 232.29,140.213z"/>
<glyph unicode="" d="M 309.099,143.742l 79.646,79.647c 14.666,14.664, 14.666,38.435,0.00,53.097   c-14.664,14.666-38.437,14.666-53.097,0.00L 256.00,196.842l-79.647,79.645c-14.664,14.666-38.435,14.666-53.098,0.00   c-14.664-14.663-14.664-38.434,0.00-53.097l 79.648-79.647l-79.647-79.646c-14.664-14.664-14.664-38.435,0.00-53.098   c 14.664-14.664, 38.436-14.666, 53.099,0.00L 256.00,90.645L 335.647,11.00c 14.665-14.665, 38.435-14.665, 53.097,0.00   c 14.666,14.666, 14.666,38.438,0.00,53.098L 309.099,143.742z"/>
<glyph unicode="" d="M 299.393,186.90l 30.238,46.742l-42.893-27.756L 256.009,328.848l-30.293-121.211l-43.348,26.006l 25.999-43.328L 87.163,160.004  l 121.199-30.297l-25.995-43.319l 47.18,28.296l 26.462-123.517l 26.88,125.466l 46.742-30.245l-30.238,46.731l 125.443,26.885  L 299.393,186.90z M 256.009,129.514c-16.838,0.00-30.497,13.659-30.497,30.49c0.00,16.839, 13.659,30.479, 30.497,30.479  c 16.837,0.00, 30.479-13.639, 30.479-30.479C 286.488,143.173, 272.848,129.514, 256.009,129.514z M 256.001,413.996  C 115.723,413.996, 2.014,300.269, 2.014,159.999c0.00-140.288, 113.711-253.995, 253.987-253.995s 253.985,113.711, 253.985,253.995  C 509.986,300.269, 396.277,413.996, 256.001,413.996z M 256.001-30.35c-105.123,0.00-190.351,85.211-190.351,190.349  c0.00,105.122, 85.228,190.35, 190.351,190.35c 105.13,0.00, 190.356-85.228, 190.356-190.35C 446.357,54.861, 361.131-30.35, 256.001-30.35z"/>
<glyph unicode="" d="M 405.184,149.697c 20.739-0.002, 37.548,16.807, 37.545,37.545c 0.001,20.739-16.809,37.549-37.545,37.545   l-300.366,0.002c-20.738,0.00-37.546-16.808-37.546-37.545c0.00-20.738, 16.808-37.549, 37.547-37.547L 405.184,149.697 z"/>
<glyph unicode="" d="M 292.547,149.696l 112.637,0.001c 20.739-0.002, 37.548,16.807, 37.545,37.545   c 0.001,20.739-16.809,37.549-37.545,37.545l-112.637,0.003l-0.002,112.636c 0.002,20.739-16.807,37.548-37.546,37.546   c-20.737,0.001-37.545-16.808-37.545-37.545l0.00-112.639l-112.637,0.00c-20.738,0.00-37.546-16.808-37.546-37.545   c0.00-20.738, 16.808-37.549, 37.547-37.547l 112.635,0.00 l 0.001-112.636c 0.001-20.74, 16.808-37.548, 37.546-37.546   c 20.741,0.00, 37.55,16.81, 37.546,37.546L 292.546,149.696 z"/>
<glyph unicode="" d="M 345.841,339.168c-25.457,0.00-46.08-7.833-46.08-33.28l0.00-291.84 c0.00-25.452, 20.623-33.28, 46.08-33.28c 25.448,0.00, 46.08,7.827, 46.08,33.28l0.00,291.84 C 391.921,331.336, 371.288,339.168, 345.841,339.168zM 166.64,339.168c-25.457,0.00-46.08-7.833-46.08-33.28l0.00-291.84 c0.00-25.452, 20.623-33.28, 46.08-33.28c 25.448,0.00, 46.08,7.827, 46.08,33.28l0.00,291.84 C 212.72,331.336, 192.088,339.168, 166.64,339.168z"/>
<glyph unicode="" d="M 440.977,383.25L 197.151,383.25 c-13.021,0.00-25.135-6.629-32.182-17.58L 32.741,159.991l0.00-84.928 c 70.827,0.00, 129.214-53.248, 137.35-121.896  c 1.089-9.353, 9.008-16.417, 18.433-16.417L 479.26-63.25 L 479.26,159.991 L 479.26,344.977 C 479.26,366.116, 462.116,383.25, 440.977,383.25z M 141.596,215.10  l 72.662,113.023l 209.648,0.00 L 423.906,215.10 L 141.596,215.10 z M 423.979,102.775L 311.49,102.775 l0.00,30.22 l 112.488,0.00 L 423.978,102.775 z"/>
<glyph unicode="" d="M 31.50,272.242 L 31.50,384.497 L 143.754,384.497 L 143.754,272.242 L 31.50,272.242 Z M 199.878,272.242 L 199.878,384.497 L 312.125,384.497 L 312.125,272.242 L 199.878,272.242 Z M 368.256,384.497 L 480.50,384.497 L 480.50,272.243 L 368.256,272.243 L 368.256,384.497 Z M 31.50,103.863 L 31.50,216.118 L 143.754,216.118 L 143.754,103.863 L 31.50,103.863 Z M 199.878,103.863 L 199.878,216.118 L 312.125,216.118 L 312.125,103.863 L 199.878,103.863 Z M 368.256,103.863 L 368.256,216.118 L 480.50,216.118 L 480.50,103.863 L 368.256,103.863 Z M 31.50-64.497 L 31.50,47.747 L 143.754,47.747 L 143.754-64.497 L 31.50-64.497 Z M 199.878-64.497 L 199.878,47.747 L 312.125,47.747 L 312.125-64.497 L 199.878-64.497 Z M 368.256-64.497 L 368.256,47.747 L 480.50,47.747 L 480.50-64.497 L 368.256-64.497 Z"/>
<glyph unicode="" d="M 198.223,104.747l 57.493-57.493l0.00-111.241 l-74.563,0.00 L 181.153,87.806 L 198.223,104.747z M 293.022-63.987l 74.565,0.00 L 367.587,125.698 l-74.565-74.564  L 293.022-63.987 z M 69.282-63.987l 74.588,0.00 L 143.87,50.806 l-74.588-74.023L 69.282-63.987 z M 404.868,162.979l0.00-226.966 l 74.56,0.00 l0.00,303.93 l-68.115-70.52  L 404.868,162.979z M 444.171,383.415l-73.225-68.117l-97.86-97.859l-74.044,73.442l-19.746-19.746l-0.109,0.108l-76.501-75.955  l-70.657-70.192l0.00-80.217 l 70.657,70.11l 96.276,95.566l 33.757-33.485l 40.204-40.531L 411.312,274.93l 68.115,65.768L 479.427,383.415 L 444.171,383.415 z"/>
<glyph unicode="" d="M 31.938,309.375c0.00,20.63, 16.715,37.344, 37.344,37.344l 373.438,0.00 c 20.617,0.00, 37.344-16.714, 37.344-37.344  s-16.727-37.344-37.344-37.344L 69.281,272.031 C 48.652,272.031, 31.938,288.745, 31.938,309.375z M 442.719,197.344L 69.281,197.344   c-20.629,0.00-37.344-16.715-37.344-37.344c0.00-20.617, 16.715-37.344, 37.344-37.344l 373.438,0.00 c 20.617,0.00, 37.344,16.727, 37.344,37.344  C 480.062,180.629, 463.336,197.344, 442.719,197.344z M 442.719,47.968L 69.281,47.968 c-20.629,0.00-37.344-16.727-37.344-37.343  c0.00-20.617, 16.715-37.344, 37.344-37.344l 373.438,0.00 c 20.617,0.00, 37.344,16.727, 37.344,37.344  C 480.062,31.241, 463.336,47.968, 442.719,47.968z"/>
<glyph unicode="" d="M 386.641,310.391l-62.346,66.232c-9.406,9.971-24.658,9.971-34.039,0.00c-9.383-9.971-9.383-26.161,0.00-36.131l 36.061-38.276   L 171.488,302.216 c-13.964,0.00-25.276-12.463-25.276-27.876c0.00-15.412, 11.312-27.902, 25.276-27.902L 326.40,246.438 l-36.145-38.382   c-9.383-9.973-9.383-26.135,0.00-36.133c 9.381-9.969, 24.633-9.969, 34.039,0.00l 16.994,18.065l 45.352,48.167l 34.014,36.132   L 386.641,310.391z M 340.539,137.561l-154.94,0.00 l 36.146,38.382c 9.381,9.972, 9.381,26.135,0.00,36.133c-9.396,9.971-24.634,9.971-34.016,0.00   L 170.71,194.01l-45.351-48.167l-34.015-36.133l 34.015-36.104l 62.369-66.232c 9.382-9.969, 24.621-9.969, 34.016,0.00   c 9.381,9.971, 9.381,26.162,0.00,36.131l-36.061,38.275l 154.855,0.00 c 13.936,0.00, 25.248,12.463, 25.248,27.877   C 365.787,125.07, 354.475,137.561, 340.539,137.561z"/>
<glyph unicode="" d="M 255.802,416.00C 114.31,416.00-0.396,301.294-0.396,159.802c0.00-141.492, 114.705-256.197, 256.197-256.197   C 397.295-96.395, 512.00,18.311, 512.00,159.802C 512.00,301.294, 397.295,416.00, 255.802,416.00z M 308.409,91.216l-96.363,0.00 l 22.439-23.819   c 5.838-6.204, 5.838-16.278,0.00-22.482c-5.837-6.205-15.329-6.205-21.166,0.00l-38.814,41.215l-21.166,22.468l 21.166,22.483   l 28.222,29.974l 10.592,11.242c 5.837,6.205, 15.329,6.205, 21.166,0.00c 5.838-6.221, 5.838-16.279,0.00-22.484l-22.493-23.885l 96.417,0.00    c 8.675,0.00, 15.712-7.772, 15.712-17.364C 324.121,98.974, 317.084,91.216, 308.409,91.216z M 337.098,188.524l-28.221-29.973   l-10.575-11.242c-5.854-6.205-15.345-6.205-21.184,0.00c-5.838,6.222-5.838,16.279,0.00,22.484l 22.494,23.885l-96.401,0.00    c-8.689,0.00-15.728,7.773-15.728,17.363c0.00,9.591, 7.039,17.347, 15.728,17.347l 96.348,0.00 l-22.44,23.818c-5.838,6.205-5.838,16.28,0.00,22.484   c 5.839,6.205, 15.329,6.205, 21.184,0.00l 38.796-41.216l 21.166-22.467L 337.098,188.524z"/>
<glyph unicode="" d="M 498.93,294.791c-63.829,59.217-149.227,95.511-242.958,95.511c-93.721,0.00-179.07-36.271-242.899-95.468   c-8.025-7.435-12.658-17.814-12.867-28.752c-0.209-10.933, 4.021-21.499, 11.761-29.233l 0.24-0.246   c 15.394-15.386, 40.127-15.842, 56.088-1.062c 49.347,45.673, 115.299,73.634, 187.677,73.634c 72.346,0.00, 138.283-27.94, 187.617-73.58   c 15.991-14.789, 40.813-14.326, 56.207,1.076l 0.24,0.223c 7.711,7.727, 11.972,18.263, 11.758,29.188   C 511.585,277.006, 506.94,287.363, 498.93,294.791z M 382.538,181.412c-34.121,29.073-78.326,46.634-126.567,46.634   c-48.242,0.00-92.45-17.561-126.583-46.634c-8.608-7.339-13.765-17.948-14.228-29.257c-0.447-11.312, 3.812-22.333, 11.821-30.328   l 0.031-0.037c 14.99-14.978, 38.886-15.889, 54.982-2.138c 19.921,16.998, 45.732,27.271, 73.978,27.271   c 28.247,0.00, 54.056-10.273, 73.962-27.271c 16.095-13.719, 40.035-12.81, 54.994,2.144l 0.031,0.031   c 8.01,8.017, 12.301,19.001, 11.838,30.323C 396.346,163.464, 391.16,174.064, 382.538,181.412z M 255.971,65.804   c-18.308,0.00-33.208-14.897-33.208-33.206c0.00-2.585, 0.373-5.067, 0.927-7.481c 2.853-12.274, 12.508-21.93, 24.793-24.785   c 2.423-0.567, 4.904-0.939, 7.488-0.939s 5.067,0.372, 7.488,0.925c 12.282,2.87, 21.923,12.511, 24.794,24.80   c 0.549,2.414, 0.926,4.904, 0.926,7.481C 289.179,50.906, 274.277,65.804, 255.971,65.804z"/>
<glyph unicode="" d="M 256.343,416.00C 115.149,416.00, 0.687,301.537, 0.687,160.343   c0.00-141.193, 114.463-255.656, 255.657-255.656S 512.00,19.149, 512.00,160.343C 512.00,301.537, 397.537,416.00, 256.343,416.00z M 320.425,137.873   l-28.162-29.91l-10.57-11.217c-5.825-6.193-15.296-6.193-21.122,0.00c-5.825,6.207-5.825,16.243,0.00,22.436l 22.446,23.834l-96.212,0.00    c-8.655,0.00-15.679,7.757-15.679,17.327s 7.024,17.31, 15.679,17.31l 96.159,0.00 l-22.393,23.768c-5.825,6.192-5.825,16.228,0.00,22.437   c 5.826,6.192, 15.297,6.192, 21.122,0.00l 38.732-41.128l 21.122-22.42L 320.425,137.873z"/>
<glyph unicode="" d="M 359.207,227.254l-62.346,66.232c-9.406,9.971-24.658,9.971-34.039,0.00c-9.382-9.971-9.382-26.161,0.00-36.131l 36.061-38.276   L 144.055,219.079 c-13.964,0.00-25.276-12.463-25.276-27.876c0.00-15.412, 11.312-27.902, 25.276-27.902l 154.912,0.00 l-36.145-38.382   c-9.382-9.973-9.382-26.135,0.00-36.133c 9.381-9.969, 24.633-9.969, 34.039,0.00l 16.994,18.065l 45.352,48.167l 34.014,36.132   L 359.207,227.254z"/>
<glyph unicode="" d="M 255.711,415.921C 114.298,415.921-0.333,301.279-0.333,159.887c0.00-141.417, 114.631-256.049, 256.045-256.049  c 141.407,0.00, 256.039,114.632, 256.039,256.049C 511.75,301.279, 397.118,415.921, 255.711,415.921z M 302.04,127.693l-43.142-42.517  l-15.783-15.787c-4.461-4.473-9.818-6.698-16.10-6.698c-6.271,0.00-11.637,2.143-16.10,6.385c-4.45,4.265-6.677,9.507-6.677,15.789  c0.00,6.261, 2.227,11.627, 6.677,16.10l 58.319,58.922l-58.319,58.907c-4.45,4.451-6.677,9.818-6.677,16.09  c0.00,6.282, 2.227,11.555, 6.677,15.797c 4.463,4.253, 9.829,6.375, 16.10,6.375c 6.282,0.00, 11.639-2.225, 16.10-6.677l 58.924-58.314  l 32.178-32.178L 302.04,127.693z"/>
<glyph unicode="" d="M 468.773,10.123l-2.458,7.528c-1.889,5.792-6.017,10.591-11.463,13.329    c-5.436,2.737-11.749,3.188-17.528,1.252l-17.80-5.973l-9.776,93.812c-1.213,11.642-11.027,20.49-22.73,20.49L 251.927,140.561     l-4.705,36.481l 110.336,0.00 c 12.622,0.00, 22.856,10.227, 22.856,22.856l0.00,0.117 c0.00,12.622-10.234,22.855-22.856,22.855L 242.448,222.87 l-9.769,93.656    c 15.227,10.958, 24.341,29.506, 22.265,49.50c-3.104,29.714-29.699,51.303-59.422,48.20c-29.716-3.096-51.295-29.699-48.201-59.414    c 2.085-19.995, 14.83-36.264, 31.987-43.854l 22.521-207.416c 0.989-9.456, 8.951-16.648, 18.453-16.648l 138.964,0.00 l 8.104-77.683    l 2.745-26.447c 0.716-6.877, 4.502-13.052, 10.289-16.808c 5.794-3.765, 12.98-4.705, 19.542-2.558l 25.291,8.258l 29.062,9.691    C 466.20-14.677, 472.67-1.822, 468.773,10.123z M 306.948-21.63c-9.746,0.00-12.949-5.162-24.228-12.022    c-19.666-11.938-42.70-18.859-67.345-18.859c-71.825,0.00-130.261,58.443-130.261,130.277c0.00,38.309, 16.658,72.775, 43.076,96.626    c 8.454,7.622, 22.979,14.006, 19.303,30.726c-2.108,9.66-10.694,16.908-20.983,16.908c-9.13,0.00-16.571-6.495-23.734-12.615    c-37.135-31.768-60.683-78.95-60.683-131.645c0.00-95.71, 77.581-173.29, 173.282-173.29c 34.825,0.00, 67.122,10.429, 94.263,28.128    c 9.487,6.184, 18.811,11.72, 18.811,24.264C 328.449-31.256, 318.822-21.63, 306.948-21.63z"/>
<glyph unicode="" d="M 408.714,94.431l-31.935,39.924l-58.772-17.224l-0.027,0.033l-0.039-0.051l-117.835-34.527l-36.739-10.767   l-69.374-20.325l-23.92-7.01l-19.251-5.644l0.00-29.687 c0.00-4.613, 3.743-8.356, 8.356-8.356l 384.352,0.00 c 4.615,0.00, 8.355,3.743, 8.355,8.356   L 451.885,156.359 l-43.171-12.648L 408.714,94.431 zM 511.809,213.592l-10.53,35.947l-49.394-14.474l0.00,74.885 c0.00,4.618-3.74,8.355-8.355,8.355L 59.177,318.305    c-4.613,0.00-8.356-3.738-8.356-8.355l0.00-192.403 l-50.29-14.735l 10.532-35.943l 0.174-0.595l 39.583,11.597l 35.963,10.541l 7.208,2.112   l 198.716,58.228l 116.006,33.993l 43.171,12.649l 60.095,17.609L 511.809,213.592z M 93.992,275.137l 314.722,0.00 l0.00-52.72 l-27.869-8.167   c-0.215,18.942-15.627,34.248-34.622,34.248c-19.12,0.00-34.636-15.518-34.636-34.642c0.00-6.746, 1.965-13.022, 5.302-18.347   l-49.891-14.619l-40.066,50.083c-3.171,3.963-7.972,6.27-13.048,6.27c-5.077,0.00-9.878-2.307-13.049-6.27l-72.591-90.741   l-34.252-10.034L 93.992,275.137 z"/>
<glyph unicode="" d="M 511.997,140.521c-24.41,0.00-44.217,19.806-44.217,44.215c0.00,24.414, 19.807,44.223, 44.217,44.223L 511.997,336.563    L 407.819,336.563 L 104.178,336.563 L-0.003,336.563 l0.00-107.605 c 24.417-0.003, 44.219-19.812, 44.219-44.223c0.00-24.41-19.802-44.212-44.219-44.215L0.00,32.916l 104.178,0.00    l 303.644,0.00 L 512.00,32.916 L 512.00,140.521 L 511.997,140.521 z M 411.781,138.694c0.00-27.448-22.331-49.779-49.778-49.779L 149.994,88.915    c-27.448,0.00-49.778,22.331-49.778,49.779l0.00,92.091 c0.00,27.448, 22.33,49.778, 49.778,49.778l 212.009,0.00    c 27.447,0.00, 49.778-22.331, 49.778-49.778L 411.781,138.694 zM 362.003,241.452L 149.994,241.452 c-5.889,0.00-10.667-4.774-10.667-10.667l0.00-92.091 c0.00-5.893, 4.778-10.667, 10.667-10.667   l 212.009,0.00 c 5.889,0.00, 10.666,4.774, 10.666,10.667l0.00,92.091 C 372.669,236.677, 367.892,241.452, 362.003,241.452z"/>
<glyph unicode=" " horiz-adv-x="256"/>
<glyph class="hidden" unicode="" d="M0,416L 512 -96L0 -96 z" horiz-adv-x="0"/>
</font>
</defs>
</svg>
